# xmcd
#
# Track frame offsets:
#	183
#	11745
#	69943
#	96483
#	111088
#	121823
#	134038
#	145868
#	158613
#	170535
#	183758
#	195000
#	209920
#	224198
#	241793
#
# Disc length: 3454 seconds
#
# Revision: 0
# Processed by: cddbd v1.4PL0 Copyright (c) Steve Scherf et al.
# Submitted via: dBpowerAMP V4.0
#
DISCID=da0d7c0f
DTITLE=Various Artist - Rhythm'n'Blues vol.2
DYEAR=1900
DGENRE=Blues
TTITLE0=Sam and Dave - Soul man
TTITLE1=James Brown - It's a man mans world
TTITLE2=James Brown - Georgia on my mind
TTITLE3=Billy Ocean - Love really hurts
TTITLE4=Soul Survivors - Express way to your heart
TTITLE5=Maxine Brown - Oh no ! Not my baby
TTITLE6=Wilson Picket - If you need me
TTITLE7=The Drifters - On Broadway
TTITLE8=Sam and Dave - Hold on I'm coming
TTITLE9=Ramsey Lewis - Hard days night
TTITLE10=John Lee Hooker - Boom Boom
TTITLE11=B. B. King - B. B. Boogie
TTITLE12=Ray Charles - Walkin' and Talkin'
TTITLE13=Gladys Knight - So sad the song
TTITLE14=Billy Ocean - On the run - Hold on brother
EXTD=
EXTT0=
EXTT1=
EXTT2=
EXTT3=
EXTT4=
EXTT5=
EXTT6=
EXTT7=
EXTT8=
EXTT9=
EXTT10=
EXTT11=
EXTT12=
EXTT13=
EXTT14=
PLAYORDER=
